<?xml version="1.0" encoding="utf-8"?>
<!-- Generator: Adobe Illustrator 21.0.2, SVG Export Plug-In . SVG Version: 6.00 Build 0)  -->
<svg version="1.1" id="Layer_1" xmlns="http://www.w3.org/2000/svg" xmlns:xlink="http://www.w3.org/1999/xlink" x="0px" y="0px"
	 viewBox="0 0 125 50" style="enable-background:new 0 0 125 50;" xml:space="preserve">
<style type="text/css">
	.st0{fill:#151515;}
</style>
<g>
	<g>
		<path class="st0" d="M17.8,25.2v4.2h-1.9V20h1.9v3.6h3.6V20h1.9v9.4h-1.9v-4.2H17.8z"/>
		<path class="st0" d="M26.7,22.4v7h-1.8v-7H26.7z M26.7,21.6h-1.8v-1.7h1.8V21.6z"/>
		<path class="st0" d="M30.2,22.4h1.1v1.3h-1.1v3.8c0,0.4,0,0.6,0.7,0.6c0.1,0,0.2,0,0.4,0v1.4c-0.3,0-0.6,0-0.8,0h-0.2
			c-1.6,0-1.8-0.6-1.8-1.5v-4.2h-0.9v-1.3h0.9v-1.9h1.8V22.4z"/>
		<path class="st0" d="M36.4,26.9c0,0.8-0.8,1.4-1.6,1.4c-0.3,0-0.8-0.2-0.8-0.8c0-0.8,0.6-0.9,1.2-1c0.7-0.1,1-0.2,1.2-0.4V26.9z
			 M38.1,24.3c0-1.7-1.8-2-2.7-2c-1.4,0-2.8,0.3-3.1,2.4h1.7c0.1-0.4,0.2-1,1.1-1c0.5,0,1.2,0,1.2,0.8c0,0.4-0.3,0.5-0.6,0.6
			l-1.6,0.2c-1.1,0.2-2,0.9-2,2.2c0,1.4,1,2,2.1,2c1.2,0,1.8-0.6,2.2-1c0,0.4,0.1,0.5,0.2,0.8h1.9v-0.3c-0.2-0.1-0.4-0.3-0.4-1.1
			V24.3z"/>
		<path class="st0" d="M45.5,26.8c-0.1,0.7-0.6,2.7-3.1,2.7c-2.6,0-3.2-2-3.2-3.5c0-2.3,1-3.9,3.3-3.9c1.1,0,2.8,0.5,3,2.7h-1.8
			c-0.1-0.5-0.4-1.2-1.2-1.1c-1.1,0-1.4,1.2-1.4,2c0,0.8,0,2.3,1.4,2.3c0.9,0,1.2-0.9,1.2-1.2H45.5z"/>
		<path class="st0" d="M52.7,29.4h-1.8v-4.2c0-0.5,0-1.4-1.2-1.4c-0.8,0-1.4,0.5-1.4,1.6v4h-1.8V20h1.8v3.3h0c0.2-0.6,1-1.1,2-1.1
			c1.3,0,2.4,0.8,2.4,2.3V29.4z"/>
		<path class="st0" d="M55.9,22.4v7h-1.8v-7H55.9z M55.9,21.6h-1.8v-1.7h1.8V21.6z"/>
		<path class="st0" d="M8.8,19c2.1,0.5,3.8,2.2,4.3,4.3c0.2,0.7,0.7,1.3,1.4,1.4l0,0c-0.8,0.1-1.3,0.6-1.4,1.3l0,0
			c-0.5,2.1-2.2,3.8-4.3,4.3c-0.7,0.2-1.3,0.7-1.4,1.4h0c-0.1-0.8-0.6-1.3-1.4-1.4c-2.1-0.5-3.8-2.2-4.3-4.3
			c-0.2-0.7-0.7-1.3-1.4-1.3l0,0c0.8-0.1,1.3-0.6,1.4-1.4C2.3,21.2,4,19.5,6.1,19c0.7-0.2,1.3-0.7,1.3-1.4l0,0
			C7.5,18.3,8.1,18.8,8.8,19L8.8,19z M7.5,27.1c1.3,0,2.3-1,2.3-2.3c0-1.3-1-2.3-2.3-2.3c-1.3,0-2.3,1-2.3,2.3
			C5.1,26,6.2,27.1,7.5,27.1z M4.4,21.2h2.5v-1.1C5.9,20.2,5.1,20.6,4.4,21.2z M8.1,21.2h2.5c-0.7-0.6-1.6-1-2.5-1.1V21.2z
			 M7.5,29.4c1.4,0,2.3-0.4,3.1-1.2H4.4C5.2,29,6.3,29.4,7.5,29.4z M7.5,25.9c0.7,0,1.2-0.5,1.2-1.2c0-0.7-0.5-1.2-1.2-1.2
			c-0.6,0-1.2,0.5-1.2,1.2C6.3,25.4,6.8,25.9,7.5,25.9z M4.9,27.1C4.3,26.4,4,25.6,4,24.7c0-0.9,0.3-1.7,0.9-2.3H3.4
			c-0.4,0.7-0.6,1.5-0.6,2.3c0,0.9,0.2,1.6,0.6,2.3H4.9z M11.5,27.1c0.4-0.7,0.6-1.5,0.6-2.3c0-0.9-0.2-1.7-0.6-2.3h-1.4
			c0.6,0.6,0.9,1.4,0.9,2.3c0,0.9-0.3,1.7-0.9,2.3H11.5z M7.5,24.7"/>
	</g>
	<g>
		<path class="st0" d="M66.5,23.1c-0.2-0.6-0.5-1.6-2.1-1.6c-0.9,0-2.3,0.6-2.3,3.3c0,1.7,0.7,3.2,2.3,3.2c1.1,0,1.8-0.6,2.1-1.8h2
			c-0.4,2-1.7,3.5-4.1,3.5c-2.5,0-4.3-1.7-4.3-4.9c0-3.3,1.9-5,4.3-5c2.8,0,4,1.9,4.1,3.3H66.5z"/>
		<path class="st0" d="M72.9,29.6c-1.9,0-3.6-1.2-3.6-3.7c0-2.5,1.7-3.7,3.6-3.7c1.9,0,3.6,1.2,3.6,3.7
			C76.4,28.4,74.7,29.6,72.9,29.6z M72.9,23.8c-1.4,0-1.7,1.2-1.7,2.1c0,0.9,0.3,2.1,1.7,2.1c1.4,0,1.7-1.2,1.7-2.1
			C74.5,25,74.3,23.8,72.9,23.8z"/>
		<path class="st0" d="M83.7,29.4h-1.8v-4.2c0-0.5,0-1.4-1.2-1.4c-0.8,0-1.4,0.6-1.4,1.6v4h-1.8v-7h1.8v1h0c0.2-0.4,0.8-1.2,2.1-1.2
			c1.4,0,2.4,0.8,2.4,2.3V29.4z"/>
		<path class="st0" d="M89,24.5c-0.1-0.4-0.2-0.9-1.2-0.9s-1.1,0.4-1.1,0.7c0,1.1,4.4,0.3,4.4,2.9c0,2-2,2.4-3.1,2.4
			c-1.6,0-3.3-0.6-3.4-2.4h1.9c0,0.6,0.4,1,1.5,1c0.9,0,1.2-0.5,1.2-0.7c0-1.2-4.3-0.3-4.3-2.9c0-1,0.6-2.3,2.8-2.3
			c1.4,0,3,0.3,3.1,2.3H89z"/>
		<path class="st0" d="M98.2,29.4h-1.8v-1h0c-0.4,0.7-1.2,1.2-2.1,1.2C93,29.6,92,28.8,92,27v-4.6h1.8v4.3c0,1.1,0.6,1.3,1.2,1.3
			c0.6,0,1.4-0.3,1.4-1.6v-4h1.8V29.4z"/>
		<path class="st0" d="M101.5,29.4h-1.8V20h1.8V29.4z"/>
		<path class="st0" d="M105.3,22.4h1.1v1.3h-1.1v3.8c0,0.4,0,0.6,0.8,0.6c0.1,0,0.2,0,0.4,0v1.4c-0.3,0-0.6,0-0.9,0h-0.2
			c-1.6,0-1.9-0.6-1.9-1.5v-4.2h-0.9v-1.3h0.9v-1.9h1.8V22.4z"/>
		<path class="st0" d="M109.6,21.6h-1.8v-1.7h1.8V21.6z M109.6,22.4v7h-1.8v-7H109.6z"/>
		<path class="st0" d="M117.3,29.4h-1.8v-4.2c0-0.5,0-1.4-1.2-1.4c-0.8,0-1.4,0.6-1.4,1.6v4H111v-7h1.8v1h0c0.2-0.4,0.8-1.2,2.1-1.2
			c1.4,0,2.4,0.8,2.4,2.3V29.4z"/>
		<path class="st0" d="M125,22.4V29c0,1.2-0.1,3.2-3.5,3.2c-1.4,0-3-0.6-3-2.1h2c0.1,0.4,0.2,0.7,1.3,0.7c1,0,1.5-0.5,1.5-1.6v-0.8
			l0,0c-0.3,0.5-0.8,1-1.9,1c-1.7,0-3-1.2-3-3.6c0-2.4,1.4-3.6,2.9-3.6c1.3,0,1.8,0.8,2,1.2h0v-1H125z M121.6,27.9
			c1.2,0,1.6-1.1,1.6-2c0-1.1-0.6-2-1.6-2c-0.7,0-1.4,0.5-1.4,2.1C120.2,26.8,120.5,27.9,121.6,27.9z"/>
	</g>
</g>
</svg>
